<svg version="1.1" xmlns="http://www.w3.org/2000/svg" xmlns:xlink="http://www.w3.org/1999/xlink" x="0px" y="0px"
	 viewBox="0 0 559.2 258.2" style="enable-background:new 0 0 559.2 258.2;" xml:space="preserve" class="template__logo" id="flogo">
<style type="text/css">
	.st0{fill:#A1D1DA;}
	.st1{fill:#7F9EA6;}
	.st2{fill:#82ABB3;}
	.st3{fill:#95C3CB;}
	.st4{opacity:0.3;fill:#FFFFFF;}
</style>
<g>
	<polygon class="st0" points="207.2,171.5 109.1,258.2 13.3,221.6 0,115.6 130.9,0 189.6,51.9 	"/>
	<polygon class="st1" points="13.3,221.6 207.2,171.5 109.1,258.2 	"/>
	<polygon class="st2" points="207.2,171.5 0,115.6 13.3,221.6 	"/>
	<polygon class="st3" points="189.6,51.9 0,115.6 130.9,0 	"/>
	<path class="st4" d="M155.6,208.9c0,2.8-0.1,5.6-0.2,8.3l51.8-45.8L189.6,51.9L130.9,0l-62,54.8
		C121.3,90.7,155.6,146.8,155.6,208.9z"/>
</g>
<g>
	<path class="st2" d="M320.6,74.4v18.3c-5.3-3.5-9.8-5.3-13.6-5.3c-3.2,0-5.7,1.2-7.5,3.5c-1.8,2.3-2.7,5.6-2.7,9.8v21.4h23.8v16.5
		h-23.8V208h-18.1v-69.2h-15.8v-16.5h15.8V102c0-9.7,2.5-17.5,7.5-23.3c5-5.8,11.7-8.7,20.1-8.7C310.5,70,315.3,71.5,320.6,74.4z"/>
	<path class="st2" d="M335.8,73.1h18.1V208h-18.1V73.1z"/>
	<path class="st2" d="M368.8,164.7c0-11.7,4.6-22.1,13.9-31.2c9.2-9.1,19.9-13.7,31.8-13.7c12.3,0,23.1,4.5,32.3,13.5
		c9.2,9,13.8,19.4,13.8,31.4c0,12.1-4.5,22.7-13.6,31.8c-9,9.2-19.5,13.8-31.3,13.8c-12.7,0-23.7-4.5-33-13.6
		C373.5,187.7,368.8,177,368.8,164.7z M443.2,164.8c0-7.3-2.8-13.6-8.3-19c-5.5-5.4-12.1-8.1-19.7-8.1c-7.8,0-14.6,2.7-20.2,8.2
		c-5.6,5.4-8.5,12-8.5,19.5c0,7.2,2.9,13.5,8.6,18.9c5.7,5.4,12.4,8.1,20.1,8.1c7.5,0,14-2.8,19.6-8.3
		C440.4,178.6,443.2,172.1,443.2,164.8z"/>
	<path class="st2" d="M559.2,168.6h-73.1c1.6,8.8,5.2,15.2,10.9,19.3c5.6,4.1,11.8,6.1,18.4,6.1c10.3,0,18.8-4.3,25.8-12.8l13.2,10
		c-9.9,12.8-23.2,19.2-39.8,19.2c-12.7,0-23.4-4.4-32-13.1c-8.6-8.7-12.9-19.6-12.9-32.5c0-12.1,4.3-22.6,13-31.5
		c8.7-8.9,19.3-13.4,31.8-13.4c12.3,0,22.9,4.5,31.7,13.6C555,142.4,559.4,154.2,559.2,168.6z M487.9,154.1h52.4
		c-5.8-11.8-14.4-17.7-25.8-17.7C502.1,136.5,493.3,142.4,487.9,154.1z"/>
</g>
</svg>
