<!-- Generator: Adobe Illustrator 19.1.0, SVG Export Plug-In . SVG Version: 6.00 Build 0)  -->
<svg version="1.1" id="Layer_1" xmlns="http://www.w3.org/2000/svg" xmlns:xlink="http://www.w3.org/1999/xlink" x="0px" y="0px"
	 viewBox="0 0 63.7 62.9" style="enable-background:new 0 0 63.7 62.9;" xml:space="preserve" class="hover-svg">
<g class="left">
	<path class="st0" d="M49.4,5.7l6,1.1L10.2,51.9l-4.9-0.8l-0.1,1l4.7,0.8l0.9,4.8l1-0.1l-0.9-4.9L56.1,7.6l1.1,5.9L62.9,0L49.4,5.7z
		 M56.9,6L53,5.3l8-3.4l-3.4,8L56.9,6z"/>
	<polygon class="st0" points="2.8,53.7 2.6,54.7 7.4,55.5 8.2,60.3 9.2,60.2 8.2,54.7 	"/>
	<polygon class="st0" points="0.1,56.3 0,57.3 4.7,58.1 5.6,62.9 6.6,62.8 5.6,57.2 	"/>
</g>
<g class="right">
	<path class="st0" d="M58.4,51.1l-4.9,0.8L8.3,6.8l6-1.1L0.8,0l5.7,13.5l1.1-5.9l45.2,45.1l-0.9,4.9l1,0.1l0.9-4.8l4.7-0.8
		L58.4,51.1z M6.8,6L6.1,9.9l-3.4-8l8,3.4L6.8,6z"/>
	<polygon class="st0" points="61,53.7 55.5,54.7 54.5,60.2 55.5,60.3 56.3,55.5 61.1,54.7 	"/>
	<polygon class="st0" points="63.6,56.3 58.1,57.2 57.1,62.8 58.1,62.9 59,58.1 63.7,57.3 	"/>
</g>
</svg>
