<!-- Generator: Adobe Illustrator 19.1.0, SVG Export Plug-In . SVG Version: 6.00 Build 0)  -->
<svg version="1.1" id="Layer_1" xmlns="http://www.w3.org/2000/svg" xmlns:xlink="http://www.w3.org/1999/xlink" x="0px" y="0px"
	 viewBox="0 0 59.8 7.8" style="enable-background:new 0 0 59.8 7.8;" xml:space="preserve">
<style type="text/css">
	.st0{fill:#FFF;}
</style>
<g>
	<path class="st0" d="M50.3,0l2.4,3.5l-44.9,0l-2-2.8L5.2,1.1l2,2.8l-2,2.8l0.6,0.4l2-2.9l44.9,0l-2.4,3.5l9.5-3.9L50.3,0z
		 M53.8,3.9l-1.6-2.3l5.6,2.3l-5.6,2.3L53.8,3.9z"/>
	<polygon class="st0" points="3.2,0.7 2.6,1.1 4.6,3.9 2.6,6.6 3.2,7.1 5.5,3.9 	"/>
	<polygon class="st0" points="0.6,0.7 0.1,1.1 2,3.9 0.1,6.7 0.6,7.1 2.9,3.9 	"/>
</g>
</svg>
